# xmcd
#
# Track frame offsets:
#	150
#	10467
#	37241
#	56666
#	87491
#	109954
#	140891
#	178954
#	212554
#	243379
#
# Disc length: 3473 seconds
#
# Revision: 0
# Processed by: cddbd v1.5.2PL0 Copyright (c) Steve Scherf et al.
# Submitted via: EasyCDDAExtractor 9.0.0.1
#
DISCID=9c0d8f0a
DTITLE=Heaven And Hell - Air Canada Center Toronto 22-03-07 Master Disc 1
DYEAR=2007
DGENRE=Hard Rock
TTITLE0=E5150
TTITLE1=After All (The Dead)
TTITLE2=The Mob Rules
TTITLE3=Children Of The Sea
TTITLE4=Lady Evil
TTITLE5=I
TTITLE6=The Sign Of The Southern Cross
TTITLE7=Voodoo
TTITLE8=The Devil Cried
TTITLE9=Vinnie's Solo
EXTD=
EXTT0=
EXTT1=
EXTT2=
EXTT3=
EXTT4=
EXTT5=
EXTT6=
EXTT7=
EXTT8=
EXTT9=
PLAYORDER=
